<?xml version="1.0" standalone="no"?>
<!DOCTYPE svg PUBLIC "-//W3C//DTD SVG 20010904//EN"
 "http://www.w3.org/TR/2001/REC-SVG-20010904/DTD/svg10.dtd">
<svg version="1.0" xmlns="http://www.w3.org/2000/svg"
 width="50.000000pt" height="50.000000pt" viewBox="0 0 50.000000 50.000000"
 preserveAspectRatio="xMidYMid meet">
<metadata>
Created by potrace 1.10, written by Peter Selinger 2001-2011
</metadata>
<g transform="translate(0.000000,50.000000) scale(0.100000,-0.100000)"
fill="#000000" stroke="none">
<path d="M222 489 c-12 -5 -22 -17 -22 -27 0 -10 -5 -23 -12 -30 -9 -9 -8 -16
5 -30 23 -25 21 -42 -3 -42 -36 0 -66 -41 -74 -100 -8 -59 -44 -110 -78 -110
-20 0 -25 -8 -32 -54 -8 -44 9 -66 49 -66 18 0 35 -5 37 -11 3 -8 20 -8 63 0
32 6 118 11 191 11 120 0 134 2 143 19 9 16 7 56 -4 89 -2 6 -13 12 -23 12
-27 0 -69 50 -76 93 -9 47 -24 41 -18 -7 3 -26 15 -45 43 -71 22 -19 46 -35
54 -35 8 0 15 -7 15 -15 0 -12 -5 -13 -27 -3 -86 37 -123 95 -123 189 l1 44
20 -24 c11 -13 23 -21 26 -17 12 11 -33 48 -67 55 l-32 6 22 27 c15 20 18 32
11 45 -5 10 -12 25 -14 34 -6 20 -45 29 -75 18z m63 -19 c4 -6 -8 -10 -29 -10
-20 0 -36 5 -36 10 0 6 13 10 29 10 17 0 33 -4 36 -10z m2 -36 c15 -14 14 -18
-10 -42 l-26 -26 -25 23 c-21 20 -23 26 -13 42 14 23 53 25 74 3z m-17 -84 c0
-5 -9 -10 -20 -10 -11 0 -20 5 -20 10 0 6 9 10 20 10 11 0 20 -4 20 -10z m-56
-9 c10 -15 55 -19 67 -5 6 8 18 14 26 14 15 0 15 -9 -3 -126 -3 -24 -1 -51 5
-62 10 -19 8 -22 -24 -28 -19 -3 -51 -3 -70 0 -32 6 -34 9 -24 28 6 11 8 38 5
62 -18 119 -19 126 -3 126 9 0 18 -4 21 -9z m-55 -118 c-12 -45 -60 -92 -113
-112 -21 -9 -26 -8 -26 4 0 8 8 15 18 15 10 0 34 17 54 38 29 30 37 48 42 92
4 30 13 61 19 69 18 21 22 -51 6 -106z m19 -50 c-7 -15 -22 -29 -33 -31 -18
-3 -19 -2 -3 11 9 7 20 26 24 43 10 42 18 52 22 27 2 -12 -3 -35 -10 -50z
m156 26 c3 -18 14 -38 24 -45 16 -12 15 -13 -5 -14 -17 0 -24 8 -32 38 -13 45
-13 52 -2 52 5 0 11 -14 15 -31z m-5 -92 c-41 -9 -85 -15 -97 -12 -23 6 -106
-27 -118 -46 -9 -15 -80 -10 -94 6 -21 25 2 38 77 45 63 6 66 7 35 16 -23 6 8
9 119 9 l152 0 -74 -18z m145 -20 c17 -13 17 -14 1 -30 -13 -14 -36 -17 -121
-17 -94 0 -104 2 -104 18 0 14 12 21 48 29 70 15 155 15 176 0z m-244 -28 c0
-15 -7 -19 -34 -19 -19 0 -47 -5 -63 -10 l-28 -10 24 20 c13 11 29 20 36 20 7
0 18 6 25 14 15 19 40 9 40 -15z"/>
</g>
</svg>
