<?xml version="1.0" standalone="no"?>
<!DOCTYPE svg PUBLIC "-//W3C//DTD SVG 20010904//EN"
 "http://www.w3.org/TR/2001/REC-SVG-20010904/DTD/svg10.dtd">
<svg version="1.0" xmlns="http://www.w3.org/2000/svg"
 width="32.000000pt" height="32.000000pt" viewBox="0 0 32.000000 32.000000"
 preserveAspectRatio="xMidYMid meet">
<metadata>
Created by potrace 1.10, written by Peter Selinger 2001-2011
</metadata>
<g transform="translate(0.000000,32.000000) scale(0.100000,-0.100000)"
fill="#000000" stroke="none">
<path d="M49 200 l-35 -39 42 -42 c23 -22 44 -36 48 -31 3 6 -7 22 -24 35 -16
14 -30 27 -30 29 0 2 58 2 130 0 86 -2 130 0 130 7 0 7 -46 11 -132 11 l-132
0 34 35 c22 22 29 35 19 35 -8 0 -31 -18 -50 -40z"/>
</g>
</svg>
