<?xml version="1.0" standalone="no"?>
<!DOCTYPE svg PUBLIC "-//W3C//DTD SVG 20010904//EN"
 "http://www.w3.org/TR/2001/REC-SVG-20010904/DTD/svg10.dtd">
<svg version="1.0" xmlns="http://www.w3.org/2000/svg"
 width="256.000000pt" height="256.000000pt" viewBox="0 0 256.000000 256.000000"
 preserveAspectRatio="xMidYMid meet">
<metadata>
Created by potrace 1.10, written by Peter Selinger 2001-2011
</metadata>
<g transform="translate(0.000000,256.000000) scale(0.100000,-0.100000)"
fill="#000000" stroke="none">
<path d="M1 2138 c0 -233 3 -416 6 -408 10 27 26 30 146 30 l117 0 0 383 c0
210 4 387 8 393 4 6 14 14 22 17 8 3 -56 6 -142 6 l-158 1 1 -422z"/>
<path d="M315 2540 c-17 -18 -18 -46 -16 -397 2 -363 1 -378 -17 -390 -11 -7
-67 -13 -131 -14 -61 -2 -111 -6 -111 -10 0 -4 -9 -11 -20 -14 -20 -6 -20 -15
-20 -835 0 -820 0 -829 20 -835 11 -3 20 -13 20 -21 0 -19 -17 -18 -29 4 -9
15 -10 15 -11 -5 l0 -23 1280 0 1280 0 0 23 c-1 20 -2 20 -11 5 -5 -10 -14
-18 -19 -18 -17 0 -11 25 10 38 20 12 20 23 20 830 l0 818 -23 20 c-19 17 -40
20 -131 23 -60 1 -117 8 -128 14 -18 11 -19 28 -17 382 1 281 -2 377 -11 398
l-13 27 -952 0 c-937 0 -952 0 -970 -20z m1882 -72 l23 -21 0 -343 c0 -329 -1
-344 -19 -354 -13 -6 -142 -10 -353 -10 -274 0 -338 -3 -354 -14 -47 -35 -10
-38 477 -37 471 1 473 1 496 -21 22 -21 23 -26 23 -210 0 -173 -2 -189 -19
-205 -18 -15 -118 -16 -1191 -17 -1066 -1 -1173 0 -1186 15 -12 13 -15 55 -15
208 -1 172 1 195 17 212 18 20 30 20 492 18 486 -2 512 0 482 36 -11 13 -58
15 -352 15 -215 0 -346 4 -359 10 -18 10 -19 25 -19 356 l0 346 23 19 c21 18
56 18 916 19 l895 0 23 -22z m-1439 -1299 l22 -14 0 -400 c-1 -317 -3 -404
-14 -417 -12 -17 -40 -18 -337 -18 -260 1 -328 3 -342 15 -18 13 -18 35 -15
413 3 357 5 402 20 418 16 18 37 19 331 18 245 -1 318 -5 335 -15z m480 0 l22
-14 0 -519 0 -520 -22 -23 c-21 -22 -26 -23 -197 -23 -157 1 -178 3 -198 19
l-23 19 0 524 0 523 24 15 c34 21 361 19 394 -1z m480 0 l22 -14 0 -519 0
-520 -22 -23 c-21 -22 -26 -23 -197 -23 -157 1 -178 3 -198 19 l-23 19 0 524
0 523 24 15 c34 21 361 19 394 -1z m752 -4 c19 -18 20 -30 20 -421 0 -388 -1
-404 -19 -414 -13 -6 -139 -10 -341 -10 -265 0 -324 2 -336 14 -12 12 -14 82
-14 418 l0 403 24 15 c21 12 78 15 335 14 286 -1 312 -2 331 -19z m-1712 -917
c18 -17 22 -32 22 -78 0 -94 14 -90 -353 -92 -369 -2 -353 -6 -351 91 1 107
-15 102 348 101 301 -1 312 -2 334 -22z m1709 0 c19 -18 23 -32 23 -78 0 -97
13 -94 -355 -92 -235 1 -319 5 -335 14 -17 11 -20 23 -20 76 0 105 -13 101
354 102 304 0 310 0 333 -22z"/>
<path d="M370 2110 l0 -350 353 0 c261 0 356 -3 365 -12 7 -7 12 -24 12 -38 0
-14 -5 -31 -12 -38 -9 -9 -134 -12 -500 -12 l-488 0 0 -200 0 -200 1180 0
1180 0 0 200 0 200 -488 0 c-366 0 -491 3 -500 12 -7 7 -12 24 -12 38 0 14 5
31 12 38 9 9 104 12 365 12 l353 0 0 350 0 350 -910 0 -910 0 0 -350z m497
221 c46 -23 60 -50 43 -81 -13 -24 -53 -26 -90 -5 -58 33 -146 7 -187 -54 -31
-46 -31 -116 0 -162 50 -76 155 -90 209 -30 40 45 37 61 -11 61 -62 0 -93 47
-55 84 11 12 36 16 91 16 114 0 131 -25 97 -141 -52 -174 -273 -213 -396 -69
-117 136 -54 344 122 401 40 13 133 3 177 -20z m323 -28 c20 -28 43 -62 52
-75 15 -23 16 -22 63 50 52 81 65 90 101 74 38 -18 30 -52 -37 -157 l-62 -95
2 -98 c2 -84 -1 -102 -17 -123 -17 -20 -24 -22 -48 -14 l-29 10 -5 115 -5 115
-62 95 c-67 100 -73 119 -47 145 27 26 56 14 94 -42z m512 40 c9 -10 32 -74
52 -142 20 -68 37 -126 39 -127 2 -2 20 56 40 129 36 130 51 157 88 157 44 0
56 -29 95 -235 20 -110 37 -209 36 -220 -1 -20 -27 -45 -47 -45 -33 0 -46 29
-67 142 -12 65 -23 116 -25 114 -2 -2 -18 -53 -34 -112 -32 -116 -49 -144 -84
-144 -35 0 -54 31 -90 151 -18 63 -34 111 -34 108 -4 -28 -41 -218 -46 -231
-14 -35 -74 -31 -88 5 -3 8 12 111 34 228 40 223 47 239 94 239 12 0 29 -8 37
-17z m-387 -603 c35 -39 -3 -91 -55 -75 -28 9 -37 51 -15 75 10 11 26 20 35
20 9 0 25 -9 35 -20z"/>
<path d="M674 2319 c-37 -11 -96 -64 -118 -108 -24 -46 -23 -158 2 -208 39
-74 106 -113 199 -113 69 0 125 28 158 80 29 46 52 137 38 151 -12 12 -110 22
-141 14 -17 -4 -22 -12 -20 -28 2 -17 11 -23 38 -27 19 -3 43 -10 54 -16 17
-10 17 -13 2 -41 -19 -38 -69 -81 -103 -89 -57 -15 -154 41 -188 108 -18 38
-20 100 -2 131 11 20 54 65 91 95 23 18 119 15 155 -5 24 -15 33 -15 43 -5 46
46 -106 91 -208 61z"/>
<path d="M1116 2333 c-16 -16 -2 -51 54 -135 l60 -92 0 -93 c0 -99 10 -136 35
-127 12 5 15 28 15 112 0 103 1 107 34 156 87 133 95 149 84 170 -11 20 -12
19 -39 -14 -16 -19 -43 -55 -61 -79 -18 -25 -38 -45 -43 -45 -6 0 -32 31 -58
69 -48 70 -69 90 -81 78z"/>
<path d="M1643 2328 c-12 -16 -15 -28 -53 -247 -19 -111 -27 -178 -21 -184 20
-20 40 2 46 50 3 26 10 64 15 84 6 20 10 45 10 56 0 11 8 27 19 37 17 16 19
15 36 -11 10 -15 21 -41 26 -57 36 -143 44 -161 71 -164 24 -3 28 1 39 40 6
24 15 54 19 68 4 14 13 44 20 67 7 24 21 50 30 58 16 15 19 14 31 -14 8 -17
17 -31 21 -31 5 0 8 -20 8 -45 0 -24 4 -54 9 -67 5 -13 12 -35 15 -50 6 -28
31 -38 38 -16 5 15 -11 112 -47 288 -10 47 -17 92 -17 102 0 9 -8 24 -19 34
-18 16 -20 16 -38 0 -11 -10 -19 -25 -19 -34 0 -23 -46 -182 -61 -210 -6 -12
-16 -22 -21 -22 -22 0 -40 14 -40 31 0 10 -8 42 -18 71 -32 90 -42 124 -42
138 0 12 -28 39 -41 40 -4 0 -11 -6 -16 -12z"/>
<path d="M1261 1723 c-11 -13 -11 -17 1 -29 11 -12 17 -12 32 -1 17 12 17 13
-1 29 -16 14 -20 14 -32 1z"/>
<path d="M100 750 l0 -410 325 0 325 0 0 410 0 410 -325 0 -325 0 0 -410z
m382 243 c10 -9 18 -25 18 -36 0 -25 -229 -257 -253 -257 -22 0 -57 35 -57 56
0 24 231 254 254 254 11 0 28 -7 38 -17z m122 -249 c33 -33 19 -57 -102 -177
-66 -64 -126 -117 -135 -117 -23 0 -47 28 -47 54 0 26 227 256 253 256 8 0 23
-7 31 -16z"/>
<path d="M326 871 c-76 -76 -107 -114 -103 -125 4 -9 12 -16 19 -16 7 0 64 51
126 113 88 88 110 115 100 125 -7 7 -17 12 -23 12 -6 0 -59 -49 -119 -109z"/>
<path d="M448 621 c-77 -77 -106 -113 -102 -125 3 -9 14 -16 23 -16 18 0 231
210 231 227 0 10 -22 23 -38 23 -4 0 -55 -49 -114 -109z"/>
<path d="M850 630 l0 -530 190 0 190 0 0 530 0 530 -190 0 -190 0 0 -530z"/>
<path d="M1330 630 l0 -530 190 0 190 0 0 530 0 530 -190 0 -190 0 0 -530z"/>
<path d="M1810 750 l0 -410 325 0 325 0 0 410 0 410 -325 0 -325 0 0 -410z
m382 243 c10 -9 18 -25 18 -36 0 -25 -229 -257 -253 -257 -22 0 -57 35 -57 56
0 24 231 254 254 254 11 0 28 -7 38 -17z m122 -249 c33 -33 19 -57 -102 -177
-66 -64 -126 -117 -135 -117 -23 0 -47 28 -47 54 0 26 227 256 253 256 8 0 23
-7 31 -16z"/>
<path d="M2142 973 c-25 -10 -207 -204 -207 -221 0 -39 36 -16 139 87 76 76
107 114 103 125 -7 16 -13 18 -35 9z"/>
<path d="M2157 621 c-106 -106 -122 -133 -81 -139 27 -4 237 209 228 232 -12
32 -39 15 -147 -93z"/>
<path d="M100 170 l0 -70 325 0 325 0 0 70 0 70 -325 0 -325 0 0 -70z"/>
<path d="M1810 170 l0 -70 325 0 325 0 0 70 0 70 -325 0 -325 0 0 -70z"/>
<path d="M2268 2544 l22 -15 0 -385 0 -384 119 0 c113 0 121 -1 135 -22 15
-20 16 15 16 400 l0 422 -157 0 c-145 0 -156 -1 -135 -16z"/>
</g>
</svg>
