<?xml version="1.0" standalone="no"?>
<!DOCTYPE svg PUBLIC "-//W3C//DTD SVG 20010904//EN"
 "http://www.w3.org/TR/2001/REC-SVG-20010904/DTD/svg10.dtd">
<svg version="1.0" xmlns="http://www.w3.org/2000/svg"
 width="48.000000pt" height="44.000000pt" viewBox="0 0 48.000000 44.000000"
 preserveAspectRatio="xMidYMid meet">
<metadata>
Created by potrace 1.10, written by Peter Selinger 2001-2011
</metadata>
<g transform="translate(0.000000,44.000000) scale(0.100000,-0.100000)"
fill="#000000" stroke="none">
<path d="M227 434 c-4 -4 -19 -7 -34 -8 -24 -1 -28 -6 -31 -36 -2 -19 -8 -39
-13 -44 -5 -6 -9 -14 -9 -18 0 -12 48 -10 55 2 3 6 11 10 16 10 6 0 -1 -14
-15 -31 -28 -33 -32 -59 -15 -90 8 -15 6 -33 -6 -70 l-17 -49 -51 -1 c-29 -1
-61 -2 -72 -3 -17 -1 -21 -9 -23 -49 -3 -50 9 -61 30 -27 11 17 20 18 89 13
l77 -6 29 51 c27 51 29 52 75 52 l46 0 11 -50 c6 -28 11 -58 11 -65 0 -11 12
-15 45 -15 50 0 58 15 26 44 -13 12 -20 35 -23 76 -2 32 -10 65 -17 74 -7 8
-39 21 -72 27 -61 12 -69 22 -49 58 6 13 5 24 -4 37 -9 11 -12 32 -8 57 4 31
1 43 -13 54 -21 15 -29 16 -38 7z m17 -29 c-18 -13 -18 -14 -1 -15 23 0 20
-45 -3 -45 -10 0 -16 12 -17 38 -2 32 1 37 19 37 21 0 21 0 2 -15z m-44 -24
c0 -27 -15 -49 -26 -39 -7 8 8 68 17 68 5 0 9 -13 9 -29z m54 -60 c3 -5 -3
-20 -14 -34 -26 -33 -25 -53 5 -82 l24 -25 -22 0 c-25 0 -57 44 -57 78 0 21
36 72 50 72 5 0 11 -4 14 -9z m17 -44 c-6 -6 -11 -19 -11 -29 0 -10 -4 -18
-10 -18 -15 0 -12 28 7 57 10 15 19 21 21 13 2 -6 -1 -17 -7 -23z m28 -63 c26
-6 31 -11 31 -36 l0 -29 -62 3 c-54 3 -63 6 -66 23 -3 16 -1 18 9 8 18 -18 69
-17 69 2 0 7 -8 19 -17 24 -21 12 -8 14 36 5z m95 -30 c14 -14 18 -33 20 -116
1 -12 -4 -23 -11 -25 -8 -3 -15 14 -19 48 -5 38 -12 53 -25 56 -27 7 -26 53 0
53 11 0 27 -7 35 -16z m-144 -54 c0 -4 -7 -13 -15 -20 -12 -10 -18 -10 -32 1
-10 7 -20 14 -22 16 -1 1 -1 6 3 11 6 10 66 3 66 -8z m-40 -40 c13 -8 12 -12
-5 -28 -17 -16 -30 -19 -82 -15 -40 4 -64 10 -67 19 -4 11 8 14 54 14 33 0 60
4 60 10 0 13 20 13 40 0z m-170 -34 c0 -14 -4 -28 -10 -31 -6 -4 -10 7 -10 24
0 17 5 31 10 31 6 0 10 -11 10 -24z"/>
</g>
</svg>
