<?xml version="1.0" standalone="no"?>
<!DOCTYPE svg PUBLIC "-//W3C//DTD SVG 20010904//EN"
 "http://www.w3.org/TR/2001/REC-SVG-20010904/DTD/svg10.dtd">
<svg version="1.0" xmlns="http://www.w3.org/2000/svg"
 width="50.000000pt" height="50.000000pt" viewBox="0 0 50.000000 50.000000"
 preserveAspectRatio="xMidYMid meet">
<metadata>
Created by potrace 1.10, written by Peter Selinger 2001-2011
</metadata>
<g transform="translate(0.000000,50.000000) scale(0.100000,-0.100000)"
fill="#000000" stroke="none">
<path d="M40 443 c0 -32 21 -46 35 -23 12 19 22 10 36 -32 9 -28 24 -47 46
-61 38 -22 39 -26 17 -156 -12 -66 -23 -101 -35 -113 -29 -25 -23 -38 20 -38
l38 0 24 80 c13 44 26 80 29 80 3 0 16 -36 29 -80 l24 -80 38 0 c43 0 49 13
20 38 -15 13 -24 44 -35 118 -21 133 -21 129 17 153 22 14 38 34 47 61 13 40
23 49 35 30 14 -23 35 -9 35 23 l0 32 -80 0 -80 0 0 -29 c0 -25 3 -28 25 -24
29 6 32 -4 9 -26 -25 -25 -54 -20 -54 8 0 14 -4 28 -10 31 -16 10 -50 -14 -50
-35 0 -25 -32 -27 -54 -4 -23 22 -20 32 9 26 22 -4 25 -1 25 24 l0 29 -80 0
-80 0 0 -32z m350 -8 c0 -19 -32 -85 -41 -85 -19 0 -19 22 0 46 11 15 18 30
15 35 -7 12 5 31 17 24 5 -4 9 -13 9 -20z m-252 3 c-3 -19 12 -58 23 -58 5 0
9 -7 9 -15 0 -28 -26 -15 -43 20 -21 44 -22 65 -2 65 9 0 15 -6 13 -12z m90
-84 c20 -14 24 -14 44 0 12 9 28 16 34 16 17 0 24 -38 8 -44 -8 -3 -14 -17
-14 -31 0 -23 -3 -25 -50 -25 -46 0 -50 2 -50 25 0 13 -7 28 -15 33 -10 5 -13
15 -9 25 8 21 23 22 52 1z m75 -131 c7 -42 8 -40 -18 -45 -14 -2 -21 3 -23 20
-2 12 -7 22 -12 22 -5 0 -10 -10 -12 -22 -2 -17 -9 -22 -23 -20 -26 5 -25 3
-18 45 6 37 6 37 53 37 47 0 47 0 53 -37z m-90 -91 c-4 -44 -21 -84 -33 -77
-10 6 -7 50 7 98 8 29 28 13 26 -21z m102 16 c9 -46 10 -83 0 -88 -11 -6 -38
79 -30 98 7 20 24 14 30 -10z"/>
</g>
</svg>
